<?xml version="1.0" standalone="no"?>
<!DOCTYPE svg PUBLIC "-//W3C//DTD SVG 20010904//EN"
 "http://www.w3.org/TR/2001/REC-SVG-20010904/DTD/svg10.dtd">
<svg version="1.0" xmlns="http://www.w3.org/2000/svg"
 width="500.000000pt" height="500.000000pt" viewBox="0 0 500.000000 500.000000"
 preserveAspectRatio="xMidYMid meet">

<g transform="translate(0.000000,500.000000) scale(0.100000,-0.100000)"
fill="#000000" stroke="none">
<path d="M2455 4473 c-326 -38 -667 -150 -933 -306 -239 -140 -497 -407 -635
-657 -71 -130 -169 -379 -207 -531 -39 -150 -41 -211 -33 -789 4 -305 11 -523
14 -485 3 39 6 68 8 65 5 -14 24 -221 30 -345 4 -77 8 -119 9 -92 1 26 6 47
10 47 14 0 42 -93 42 -140 0 -25 5 -52 10 -60 6 -10 10 47 10 169 0 101 3 181
6 178 4 -4 6 -71 6 -149 -1 -146 13 -353 17 -240 1 38 5 52 16 52 7 0 18 -6
22 -14 12 -21 86 -55 155 -71 35 -8 88 -23 118 -33 30 -11 116 -36 190 -56
204 -57 248 -72 335 -121 144 -82 278 -143 370 -170 378 -109 884 -95 1208 34
40 16 146 65 237 109 172 84 351 149 555 202 71 18 140 43 168 60 27 17 59 33
72 36 13 3 28 11 32 17 4 7 6 181 3 387 -3 206 -7 335 -9 285 -5 -157 -20
-142 -20 21 -1 123 2 154 14 164 10 8 15 30 15 61 0 46 2 49 25 49 l25 0 0
-377 c0 -207 2 -374 4 -372 3 3 6 146 7 319 4 420 5 445 30 447 15 1 19 -5 19
-29 0 -17 3 -29 6 -26 9 10 5 427 -6 577 -12 166 -60 423 -100 530 -33 91 -73
167 -140 266 -26 39 -57 88 -68 111 -116 229 -322 429 -633 612 -306 181 -743
296 -1004 265z m338 -68 c205 -36 397 -102 587 -202 176 -93 212 -117 365
-247 142 -120 207 -203 328 -416 189 -330 249 -534 246 -833 -1 -132 -16 -121
-18 14 -3 179 -88 490 -187 682 -43 84 -196 319 -238 366 -103 115 -286 274
-396 342 -66 41 -287 146 -396 188 -221 84 -523 123 -719 91 -280 -44 -641
-170 -819 -284 -125 -80 -380 -310 -462 -419 -24 -31 -44 -59 -44 -62 0 -2
-13 -23 -29 -47 -63 -94 -200 -429 -238 -583 -45 -183 -52 -268 -54 -630 0
-187 -4 -329 -8 -315 -4 14 -9 99 -10 190 -1 91 -5 166 -9 167 -18 7 14 402
43 534 42 189 146 473 224 611 88 156 360 439 536 558 96 65 285 153 428 200
65 22 125 40 132 40 7 0 18 7 25 15 7 8 24 15 39 14 14 0 60 7 100 16 41 9
102 21 135 25 86 12 334 4 439 -15z m-83 -50 c172 -20 444 -97 563 -160 16 -8
33 -13 38 -9 5 3 9 0 9 -6 0 -6 15 -17 33 -25 96 -40 332 -228 468 -372 202
-214 342 -476 409 -763 41 -176 50 -264 44 -441 -7 -247 -18 -224 -25 51 -5
205 -10 273 -27 350 -63 288 -232 608 -429 815 -75 79 -275 242 -388 317 -90
60 -309 143 -508 193 -254 64 -485 60 -772 -13 -141 -36 -334 -101 -359 -120
-6 -5 -24 -12 -40 -16 -87 -21 -351 -220 -506 -382 -86 -89 -212 -278 -261
-389 -63 -146 -152 -428 -175 -558 -16 -93 -30 -118 -20 -37 14 119 40 223 98
395 71 209 101 274 190 410 112 172 361 404 554 517 128 74 438 187 614 224
37 7 270 31 330 33 19 0 91 -6 160 -14z m120 -93 c266 -70 388 -122 598 -258
130 -85 203 -149 347 -306 94 -102 100 -112 200 -284 182 -311 225 -488 233
-941 2 -174 1 -263 -6 -263 -12 0 -21 253 -9 258 10 5 9 32 -2 32 -5 0 -12 39
-16 88 -31 408 -38 439 -160 687 -123 250 -215 373 -420 564 -109 101 -230
182 -390 260 -143 71 -208 93 -380 132 -316 72 -647 35 -950 -105 -27 -13 -86
-40 -129 -60 -126 -58 -198 -104 -302 -192 -335 -282 -565 -714 -603 -1134 -7
-69 -14 -143 -17 -165 -3 -22 -5 -143 -4 -270 1 -126 -2 -226 -6 -223 -16 17
-22 201 -14 443 13 387 49 542 187 805 166 314 337 513 578 670 185 120 490
241 676 269 41 6 85 13 99 15 14 3 113 3 220 1 152 -3 211 -8 270 -23z m-162
-27 c392 -48 669 -180 961 -459 116 -112 127 -124 234 -278 26 -37 47 -69 47
-72 0 -3 13 -24 28 -48 59 -92 142 -301 171 -433 29 -136 49 -328 57 -547 6
-180 5 -198 -10 -198 -15 0 -17 22 -16 228 1 213 0 237 -29 387 -38 201 -74
314 -146 454 -49 96 -78 143 -181 295 -36 52 -166 193 -220 238 -107 89 -247
188 -356 251 -84 49 -225 97 -371 127 -434 89 -787 21 -1191 -228 -166 -102
-246 -170 -350 -294 -122 -145 -156 -198 -243 -373 -30 -60 -58 -117 -62 -125
-4 -8 -24 -67 -44 -130 -39 -126 -67 -283 -67 -378 0 -66 -6 -92 -23 -92 -16
0 0 191 28 325 81 387 331 791 620 1005 235 174 519 297 770 335 196 29 228
30 393 10z m123 -200 c34 -12 63 -35 120 -97 41 -44 88 -87 106 -94 18 -8 63
-14 101 -14 62 0 73 -3 111 -32 54 -41 100 -129 112 -214 7 -54 5 -77 -16
-159 -26 -100 -69 -369 -62 -389 2 -6 7 5 12 24 4 19 22 82 40 140 18 58 44
144 59 191 31 101 32 149 6 208 -11 24 -20 45 -20 48 0 2 47 -28 105 -67 109
-75 157 -127 177 -193 13 -44 -2 -101 -59 -226 -41 -89 -85 -199 -118 -294
-23 -64 -56 -123 -80 -139 -5 -4 -32 -8 -59 -8 -44 0 -53 4 -87 39 -57 61 -74
123 -72 266 0 66 10 180 22 253 28 185 20 240 -46 323 -34 43 -120 119 -134
119 -6 0 10 -27 35 -59 56 -72 84 -135 92 -206 11 -90 4 -90 -88 0 -140 138
-220 159 -307 81 l-24 -21 5 33 c6 42 -5 41 -21 -3 -22 -63 19 -167 69 -173
14 -1 46 -5 71 -8 56 -7 113 16 133 54 l13 24 20 -28 c47 -66 49 -178 7 -359
-20 -85 -28 -96 -42 -56 -11 32 -87 150 -119 186 -10 11 -60 58 -112 103 -51
46 -102 94 -113 107 -35 45 -78 153 -89 227 -10 65 -23 108 -74 238 -13 32
-14 24 -15 -106 0 -159 -11 -231 -45 -306 -30 -68 -53 -98 -172 -225 -54 -58
-106 -115 -115 -127 -9 -11 -30 -38 -47 -59 l-30 -38 -15 52 c-27 89 -39 179
-32 237 4 30 9 58 12 63 2 4 25 -1 50 -11 160 -69 295 64 204 200 -25 38 -30
41 -30 22 0 -19 -4 -22 -21 -17 -58 19 -143 -1 -199 -45 -20 -15 -54 -37 -78
-49 -39 -20 -42 -20 -42 -4 0 64 57 179 127 257 34 38 41 51 32 62 -6 8 -8 14
-3 14 5 0 20 9 34 20 22 17 15 16 -50 -7 -41 -14 -95 -32 -120 -39 l-45 -14
51 3 50 2 -45 -95 c-24 -52 -52 -106 -62 -120 -29 -41 -59 -160 -62 -245 -1
-44 4 -160 12 -259 16 -213 11 -316 -18 -374 -29 -57 -78 -92 -128 -92 -68 0
-97 30 -235 245 -85 133 -117 218 -125 335 -8 117 20 166 152 266 94 70 121
102 178 205 69 127 97 151 219 189 99 31 104 34 179 107 42 41 95 86 118 100
57 34 157 41 282 20 88 -15 99 -15 179 2 110 24 127 24 181 6z m-240 -602 c30
-31 59 -62 64 -68 6 -6 33 -28 60 -49 78 -58 194 -175 237 -239 142 -209 117
-436 -55 -493 -67 -22 -119 -15 -217 32 -90 42 -110 62 -110 111 0 28 5 35 48
55 58 29 132 131 132 183 0 42 -32 82 -84 106 -53 24 -200 26 -253 4 -57 -24
-101 -62 -108 -94 -14 -67 90 -188 183 -211 28 -8 54 -20 57 -28 21 -56 -127
-173 -239 -188 -58 -8 -122 22 -174 81 -46 53 -62 100 -62 187 0 78 11 112 63
200 47 78 128 163 247 256 98 78 124 119 135 219 8 64 9 66 15 30 5 -28 22
-54 61 -94z m336 91 c8 -22 -10 -49 -32 -49 -10 0 -22 7 -28 16 -15 24 -1 49
28 49 15 0 28 -7 32 -16z m-716 -10 c17 -21 0 -49 -32 -49 -27 0 -37 28 -19
50 16 19 34 19 51 -1z m789 -93 c-6 -12 -15 -21 -21 -21 -5 0 -2 11 7 25 20
30 31 26 14 -4z m-825 -71 c28 0 51 7 69 21 15 12 29 19 32 16 9 -9 -48 -46
-81 -53 -37 -7 -100 18 -109 42 -4 11 2 9 20 -5 18 -14 41 -21 69 -21z m-1334
-87 c-12 -20 -14 -14 -5 12 4 9 9 14 11 11 3 -2 0 -13 -6 -23z m3005 -173 c62
-117 94 -226 94 -324 0 -96 -16 -140 -67 -187 -30 -29 -112 -73 -120 -66 -5 6
44 126 61 146 9 12 8 13 -3 7 -10 -7 -11 -4 -5 15 5 13 9 76 8 139 0 88 -6
135 -23 200 -13 47 -27 112 -31 144 l-7 60 29 -35 c16 -19 45 -63 64 -99z
m-3037 71 c-6 -18 -13 -30 -15 -28 -2 2 1 18 7 36 6 18 13 30 15 28 2 -2 -1
-18 -7 -36z m2952 -130 c14 -39 21 -97 25 -191 6 -133 6 -136 -25 -220 -17
-47 -42 -98 -56 -115 l-24 -30 -1 37 c0 20 -4 48 -10 62 -22 59 -15 147 19
255 35 108 37 146 16 296 l-6 40 22 -39 c12 -22 30 -65 40 -95z m-2517 77 c-4
-7 -15 -22 -25 -34 -28 -30 -39 -105 -22 -139 8 -15 13 -28 11 -30 -7 -8 -70
-83 -104 -125 l-37 -45 8 54 c11 84 70 218 121 278 44 51 63 67 48 41z m-469
-50 c-4 -18 -12 -37 -17 -43 -7 -7 -8 -2 -3 15 3 14 9 33 11 43 9 30 16 18 9
-15z m1853 -5 c18 -4 20 -8 10 -15 -8 -5 -3 -6 14 -2 21 4 33 0 52 -20 38 -37
34 -75 -3 -42 -32 27 -127 49 -196 44 -87 -5 -59 9 41 21 l79 9 -92 -1 c-50
-1 -89 1 -86 6 5 9 148 9 181 0z m-160 -125 c7 -7 12 -19 12 -27 0 -20 -30
-51 -49 -50 -11 0 -10 3 6 11 30 15 37 37 17 59 -19 21 -6 27 14 7z m-1224
-73 c-16 -82 -18 -282 -4 -319 5 -15 12 -58 15 -97 3 -38 9 -79 15 -89 17 -32
12 -45 -10 -25 -11 10 -20 13 -20 7 0 -7 5 -12 10 -12 6 0 10 -4 10 -10 0 -23
-36 -7 -76 34 -117 122 -115 339 3 484 25 30 50 66 56 79 16 35 16 25 1 -52z
m73 8 c14 -84 9 -205 -10 -238 -26 -46 -46 -69 -54 -62 -15 16 30 347 48 347
4 0 11 -21 16 -47z m1331 -3 c7 0 12 -4 12 -10 0 -13 -6 -13 -33 1 -23 13 -37
28 -37 43 0 5 10 0 23 -12 13 -12 29 -22 35 -22z m1749 -42 c-3 -8 -6 -5 -6 6
-1 11 2 17 5 13 3 -3 4 -12 1 -19z m-773 -178 c9 -38 16 -88 16 -112 l-1 -43
-29 35 c-35 42 -47 106 -31 161 7 22 16 37 21 34 5 -3 16 -36 24 -75z m-2104
-171 c11 -50 10 -65 -4 -110 -10 -28 -33 -74 -52 -101 -19 -28 -42 -67 -52
-87 -32 -67 -26 2 8 102 21 61 33 117 36 167 l4 75 -13 -55 c-14 -60 -67 -202
-78 -210 -4 -3 -9 -16 -11 -30 -3 -20 -7 -15 -22 30 -24 77 -32 196 -16 272
15 72 29 106 30 71 0 -12 6 -28 14 -35 12 -12 12 -18 0 -39 -21 -38 -17 -43
15 -17 24 19 32 36 42 91 l12 68 38 -67 c20 -37 42 -93 49 -125z m-709 158
c-1 -4 -1 -26 -1 -49 0 -54 -10 -43 -15 17 -2 28 0 45 6 43 6 -2 10 -7 10 -11z
m2745 -153 c10 -16 28 -42 41 -57 23 -29 31 -67 14 -67 -13 0 -79 57 -129 112
-39 42 -44 52 -45 100 l-2 53 51 -56 c29 -31 60 -70 70 -85z m874 127 c0 -11
-4 -23 -10 -26 -6 -4 -10 5 -10 19 0 14 5 26 10 26 6 0 10 -9 10 -19z m-361
-33 c-27 -51 -93 -127 -168 -196 -53 -48 -95 -98 -123 -144 l-42 -71 -11 34
c-7 19 -15 53 -19 76 -6 39 -3 46 29 82 19 21 35 42 35 46 0 5 -16 -9 -35 -31
-36 -41 -49 -29 -18 16 41 59 77 86 199 146 143 70 172 78 153 42z m-3132 -65
c5 -14 -34 -36 -47 -28 -16 10 -12 35 5 29 8 -4 15 -1 15 6 0 14 22 8 27 -7z
m1818 7 c13 -21 24 -70 14 -65 -5 4 -9 1 -9 -4 0 -6 5 -11 11 -11 22 0 -36
-63 -75 -81 -51 -23 -164 -26 -205 -5 -34 18 -101 91 -101 111 0 24 85 20 117
-5 14 -11 35 -20 47 -20 30 0 117 43 140 69 20 22 51 28 61 11z m1611 -143 c4
-56 10 -106 14 -112 11 -14 0 -75 -14 -75 -35 1 -39 16 -37 152 1 73 5 144 8
157 l6 25 9 -23 c4 -13 11 -69 14 -124z m-3659 -109 c-1 -46 -3 -11 -3 77 0
88 2 125 3 83 2 -42 2 -114 0 -160z m100 170 c-3 -7 -5 -2 -5 12 0 14 2 19 5
13 2 -7 2 -19 0 -25z m193 10 c0 -16 -3 -19 -11 -11 -6 6 -8 16 -5 22 11 17
16 13 16 -11z m2196 -14 c58 -38 141 -129 169 -184 33 -65 41 -141 25 -251
l-13 -89 32 -40 c25 -32 31 -47 30 -87 -1 -50 -31 -154 -41 -137 -3 5 -8 20
-11 34 -4 14 -26 46 -50 71 -33 34 -60 50 -108 66 l-63 21 -17 58 c-9 33 -29
86 -44 119 -18 40 -29 85 -33 134 -8 118 -21 53 -23 -119 -1 -145 -2 -152 -26
-180 -31 -37 -79 -42 -91 -9 -8 20 -12 17 -48 -31 -75 -102 -71 -95 -51 -87
32 12 -46 -74 -85 -94 -49 -25 -74 -24 -102 4 -19 20 -24 37 -29 117 -6 98
-25 160 -67 213 -11 14 -27 42 -35 61 -14 32 -13 35 3 34 51 -2 192 40 228 67
18 14 81 84 141 157 60 73 124 143 142 155 48 32 116 31 167 -3z m-2194 -56
c150 -75 218 -127 281 -213 39 -55 43 -78 17 -113 -12 -17 -19 -35 -16 -41 4
-6 1 -11 -6 -11 -8 0 -21 12 -30 28 -22 36 -181 202 -195 202 -13 0 -99 81
-106 100 -3 8 -12 32 -21 53 -9 20 -14 37 -11 37 2 0 42 -19 87 -42z m-195
-90 c-2 -18 -4 -6 -4 27 0 33 2 48 4 33 2 -15 2 -42 0 -60z m848 72 c-3 -5
-12 -60 -19 -123 -15 -125 -43 -199 -103 -265 l-33 -37 6 50 c3 28 19 83 35
124 16 41 28 76 26 78 -8 7 -72 -124 -93 -192 -20 -66 -22 -69 -33 -45 -10 22
-11 22 -6 3 3 -13 8 -32 11 -43 11 -35 -11 -21 -25 15 -11 31 -10 44 10 103
12 37 35 88 51 113 15 25 28 49 28 52 0 3 10 17 23 30 32 34 74 85 98 118 19
27 38 42 24 19z m1989 -97 c6 -63 5 -73 -9 -73 -10 0 -13 -5 -9 -12 4 -7 3 -8
-5 -4 -8 6 -9 12 -2 20 8 10 2 18 -23 31 l-33 18 33 29 c18 16 33 33 33 36 -1
4 -1 13 0 21 2 30 9 3 15 -66z m-2724 32 c0 -19 -4 -35 -10 -35 -5 0 -10 16
-10 35 0 19 5 35 10 35 6 0 10 -16 10 -35z m3001 -8 l-24 -22 19 27 c10 14 21
24 23 22 3 -3 -6 -15 -18 -27z m-3007 -338 c2 -282 -3 -390 -19 -396 -7 -2 -9
114 -7 339 2 241 6 338 13 331 7 -7 12 -104 13 -274z m123 232 c63 -46 83 -76
70 -106 l-12 -24 -33 32 c-32 31 -87 127 -72 127 4 0 25 -13 47 -29z m3173
-330 c0 -268 2 -310 16 -322 14 -11 15 18 12 314 -2 222 0 326 7 324 13 -4 19
-594 7 -627 -6 -16 -4 -33 6 -53 22 -45 4 -254 -24 -271 -34 -20 -113 -24
-549 -25 -389 -1 -474 3 -454 23 3 3 219 6 480 6 261 1 479 4 485 8 24 15 33
53 36 149 5 156 44 143 -429 143 -311 0 -394 3 -391 13 4 9 93 13 392 15 l387
2 -7 299 c-3 165 -3 305 1 310 20 34 25 -25 25 -308z m-3503 287 c-3 -8 -6 -5
-6 6 -1 11 2 17 5 13 3 -3 4 -12 1 -19z m3139 -35 c-8 -59 3 -80 32 -64 28 15
62 14 62 -2 0 -7 -11 -23 -25 -35 -14 -12 -25 -28 -25 -36 0 -7 11 -21 25 -30
14 -9 25 -21 25 -26 0 -15 -94 -12 -115 3 -16 12 -29 8 -109 -34 -118 -63
-155 -64 -140 -5 8 33 66 70 134 86 55 13 80 25 80 41 0 5 -6 6 -14 3 -21 -8
-28 12 -21 56 4 24 11 37 19 34 6 -2 22 9 34 26 33 44 45 38 38 -17z m-216 2
c24 -12 30 -22 30 -49 0 -42 -10 -51 -27 -26 -18 25 -40 25 -77 1 -37 -25 -46
-19 -46 26 0 59 56 81 120 48z m-1700 -71 c0 -3 -9 -18 -19 -33 -35 -49 -60
-126 -55 -168 5 -36 4 -37 -10 -19 -20 24 -21 86 -3 129 22 52 87 120 87 91z
m-1208 -115 c-8 -20 -9 -20 -16 -4 -3 10 -4 27 0 38 6 17 8 18 15 5 5 -9 5
-26 1 -39z m85 -6 c-3 -10 -5 -4 -5 12 0 17 2 24 5 18 2 -7 2 -21 0 -30z m877
-5 c3 -7 7 -62 10 -123 l6 -110 -19 50 c-10 28 -27 68 -37 91 l-19 40 -23 -27
c-13 -17 -18 -30 -12 -34 21 -13 9 -22 -27 -20 -58 4 -58 44 0 108 29 31 41
37 76 37 25 0 43 -5 45 -12z m-616 -31 c2 -9 -1 -17 -7 -17 -6 0 -11 6 -11 14
0 8 -6 17 -12 20 -7 3 -4 5 7 3 11 -1 21 -10 23 -20z m2892 -27 c35 -10 110
-72 110 -91 0 -6 -14 -7 -34 -3 -57 10 -123 -19 -205 -91 -77 -68 -139 -99
-187 -93 -53 6 -33 68 22 68 31 0 82 26 105 54 10 11 32 47 50 79 21 41 41 63
63 73 38 16 34 16 76 4z m-2572 -36 c25 -17 28 -38 9 -74 -8 -14 -12 -31 -9
-38 7 -22 60 -42 114 -42 66 0 86 -10 61 -31 -58 -49 -99 -59 -147 -37 -32 14
-51 43 -82 124 -25 66 -22 95 8 107 20 8 22 8 46 -9z m2352 6 c0 -5 -9 -10
-21 -10 -11 0 -17 5 -14 10 3 6 13 10 21 10 8 0 14 -4 14 -10z m-1463 -39 c85
-37 123 -95 123 -187 0 -32 -4 -44 -15 -44 -28 0 -15 -41 25 -81 41 -41 43
-56 12 -91 -8 -10 -28 -18 -44 -18 -26 0 -28 -2 -21 -27 5 -16 8 -49 8 -75 0
-55 -29 -92 -80 -104 -27 -6 -28 -5 -13 7 9 8 22 27 28 44 10 26 9 32 -11 48
-22 18 -23 17 -34 -10 -7 -15 -26 -41 -43 -56 -24 -23 -39 -29 -77 -29 -40 0
-53 5 -82 34 -18 18 -36 43 -39 55 -4 13 -10 23 -14 23 -4 0 -13 14 -20 30
-12 29 -10 85 6 140 6 24 5 23 -29 -9 -30 -29 -37 -32 -43 -18 -7 19 29 136
58 186 13 23 16 37 9 44 -16 16 -39 -10 -55 -62 l-15 -46 0 42 c-1 23 4 65 10
93 13 59 60 113 112 129 53 17 185 7 244 -18z m998 2 c60 -33 102 -117 91
-178 -9 -45 -24 -53 -36 -19 -10 25 -36 53 -50 54 -13 0 4 -77 22 -101 11 -14
20 -42 21 -60 2 -33 1 -34 -32 -31 l-34 2 7 -42 c3 -24 9 -58 12 -76 4 -22 1
-40 -11 -59 l-18 -27 -24 28 c-35 41 -53 28 -53 -38 0 -46 -4 -59 -25 -81 -14
-14 -34 -25 -43 -25 -33 0 -84 41 -100 80 -10 22 -19 40 -22 40 -3 -1 -14 -19
-25 -42 -26 -55 -58 -66 -91 -33 -27 27 -32 71 -10 113 7 15 17 38 21 51 6 21
5 23 -23 16 -26 -5 -30 -3 -36 18 -9 37 3 86 34 142 16 28 31 67 35 88 14 71
82 147 162 178 67 26 182 27 228 2z m-1999 -14 c16 -17 16 -22 4 -30 -8 -5
-28 -7 -45 -3 -56 12 -156 14 -178 4 -22 -11 -22 -11 -2 6 37 30 79 43 141 44
49 0 65 -4 80 -21z m-103 -100 c31 -17 80 -59 70 -60 -75 -13 -133 4 -133 40
0 33 24 40 63 20z m699 -131 c-10 -10 -121 -14 -457 -18 l-443 -5 -26 -24
c-30 -28 -32 -45 -12 -93 10 -24 13 -53 9 -93 -5 -49 -3 -60 12 -71 15 -11
117 -14 532 -14 294 0 513 -4 513 -9 0 -5 -7 -12 -16 -15 -8 -3 -243 -6 -522
-7 l-507 0 -28 31 c-25 28 -27 35 -21 86 5 36 2 69 -7 96 -12 37 -11 44 8 77
40 72 35 71 533 71 355 0 442 -3 432 -12z m896 0 c-4 -10 -48 -14 -168 -16
-168 -3 -196 0 -185 18 10 16 358 13 353 -2z m1542 -33 c0 -8 -2 -15 -4 -15
-2 0 -6 7 -10 15 -3 8 -1 15 4 15 6 0 10 -7 10 -15z m-3036 -37 c8 -13 8 -23
-1 -38 -8 -12 -9 -21 -3 -25 15 -9 12 -25 -5 -25 -8 0 -15 -7 -15 -15 0 -8 5
-15 11 -15 6 0 9 -10 7 -22 -2 -18 -10 -23 -33 -23 l-30 0 -3 93 -3 93 32 -3
c18 -2 37 -11 43 -20z m1356 -18 c0 -15 13 -47 30 -71 16 -24 30 -55 30 -69 0
-23 -6 -19 -60 37 -50 51 -60 67 -60 96 0 26 5 37 18 39 29 7 42 -3 42 -32z
m-1456 8 c35 -50 7 -98 -56 -98 -36 0 -38 -2 -38 -30 0 -23 -5 -30 -19 -30
-25 0 -31 19 -31 100 0 45 -4 70 -12 73 -7 3 22 6 64 6 69 1 79 -1 92 -21z
m435 -7 l0 -26 -11 25 -11 25 -7 -25 c-8 -25 -8 -25 -9 -2 -1 14 -6 22 -13 20
-9 -3 -14 -29 -16 -74 -3 -93 -9 -114 -31 -114 -15 0 -19 10 -25 53 -3 28 -6
71 -6 95 0 47 -5 49 -57 27 -43 -18 -43 -18 -43 -1 0 22 17 25 128 24 l102 0
-1 -27z m2139 17 c14 -19 23 -108 14 -143 -6 -22 -15 -31 -33 -33 -20 -2 -25
1 -25 20 -1 96 -5 158 -11 158 -5 0 -8 -44 -8 -99 l0 -98 -28 9 c-16 6 -30 20
-33 35 -6 24 3 140 12 155 8 13 101 9 112 -4z m405 -5 c15 -18 20 -36 18 -63
-3 -30 -20 -44 -62 -49 -36 -5 -44 -10 -49 -31 -4 -16 -14 -26 -28 -28 -21 -3
-22 0 -22 61 0 35 -3 79 -6 96 l-6 31 69 0 c54 0 73 -4 86 -17z m-155 -113
l-1 -45 -6 50 c-4 28 -12 60 -19 72 -7 12 -12 28 -11 35 2 36 38 -73 37 -112z
m-404 16 c5 -33 4 -46 -3 -41 -6 3 -11 27 -11 52 0 57 5 53 14 -11z m-865
-145 c26 -17 -24 -31 -108 -31 -81 0 -111 13 -69 29 30 12 159 13 177 2z
m-714 -41 c3 -5 1 -10 -4 -10 -6 0 -11 5 -11 10 0 6 2 10 4 10 3 0 8 -4 11
-10z m-11 -76 c12 -5 13 -10 5 -26 -8 -16 -8 -23 2 -29 22 -13 30 -11 36 11 3
11 10 20 15 20 11 0 1 -52 -11 -60 -5 -3 -16 -18 -25 -35 l-17 -30 7 34 c8 43
-14 61 -34 28 -13 -22 -13 -22 -9 5 3 19 0 25 -10 21 -7 -3 -13 0 -13 6 0 6 9
11 19 11 28 0 37 21 16 37 -19 13 -9 18 19 7z m-347 -36 c26 -17 67 -45 91
-61 126 -85 401 -185 602 -218 106 -18 153 -20 305 -16 204 6 322 23 463 68
117 37 298 125 366 176 55 43 106 75 106 68 0 -3 -17 -23 -37 -46 -117 -130
-444 -258 -737 -290 -164 -18 -409 -7 -546 25 -151 35 -304 88 -415 143 -120
60 -255 152 -255 175 0 13 6 10 57 -24z m1547 -88 c5 -19 2 -18 -11 8 -9 17
-20 32 -25 32 -15 0 -20 -28 -9 -49 6 -11 7 -22 2 -25 -5 -3 -18 17 -30 46
-25 60 -27 81 -5 50 20 -30 35 -19 28 21 -5 30 -4 29 19 -13 14 -25 27 -56 31
-70z m33 43 c-3 -10 -5 -2 -5 17 0 19 2 27 5 18 2 -10 2 -26 0 -35z m-1099 31
c12 -4 22 -11 22 -16 0 -5 -10 -6 -21 -3 -32 10 -44 -16 -17 -36 l22 -17 -26
5 c-35 7 -47 -24 -13 -33 14 -3 25 -10 25 -15 0 -12 -14 -11 -44 2 -26 12 -26
10 9 107 5 14 10 14 43 6z m925 -16 c-29 -14 -30 -38 -1 -38 17 0 19 -3 10
-12 -7 -7 -12 -20 -12 -31 0 -14 5 -17 21 -12 15 5 20 3 17 -6 -3 -8 -14 -15
-25 -17 -16 -2 -24 6 -36 40 -8 24 -18 50 -22 60 -7 17 9 25 50 26 18 1 18 0
-2 -10z m557 -18 c-6 -11 -13 -20 -16 -20 -2 0 0 9 6 20 6 11 13 20 16 20 2 0
0 -9 -6 -20z m-631 -25 c12 -25 12 -32 0 -54 -16 -29 -57 -40 -70 -19 -23 36
6 112 39 106 9 -2 23 -16 31 -33z m-645 9 c20 -19 20 -24 0 -52 -8 -12 -25
-22 -38 -22 -14 0 -27 -9 -34 -22 -10 -22 -11 -22 -11 6 -1 16 4 46 11 67 9
30 16 39 34 39 12 0 30 -7 38 -16z m519 -31 c4 -21 9 -50 13 -65 4 -16 2 -28
-4 -28 -5 0 -12 13 -15 30 -9 42 -38 30 -32 -13 l5 -32 -12 28 c-16 38 -38 35
-38 -5 -1 -23 -3 -29 -9 -18 -12 22 -21 130 -11 130 5 0 10 -15 12 -32 4 -46
24 -36 20 10 -2 28 0 33 8 22 5 -8 10 -25 10 -37 0 -25 7 -28 29 -14 9 6 11
18 6 41 -4 20 -3 30 3 26 5 -3 12 -22 15 -43z m-413 7 c0 -5 -9 -10 -20 -10
-27 0 -25 -24 3 -38 22 -10 22 -11 -5 -11 -21 -1 -28 -6 -28 -21 0 -13 7 -20
20 -20 11 0 20 -5 20 -11 0 -6 -12 -9 -27 -7 -27 3 -28 4 -24 58 2 30 5 58 8
63 6 11 53 9 53 -3z m120 0 c0 -5 -6 -10 -14 -10 -16 0 -26 -30 -26 -82 0 -22
-5 -38 -11 -38 -8 0 -10 18 -6 60 6 49 4 60 -8 60 -8 0 -15 5 -15 10 0 6 18
10 40 10 22 0 40 -4 40 -10z m146 -1 c4 -7 0 -9 -14 -5 -36 12 -37 -15 -2 -44
42 -34 38 -64 -8 -68 -18 -2 -32 1 -32 7 0 6 11 11 25 11 16 0 25 6 25 15 0 9
-11 20 -25 25 -24 9 -35 47 -18 63 10 11 41 8 49 -4z"/>
<path d="M4161 2884 c0 -11 3 -14 6 -6 3 7 2 16 -1 19 -3 4 -6 -2 -5 -13z"/>
<path d="M2808 3730 c-36 -36 -31 -48 11 -30 17 7 47 10 67 8 l37 -4 -32 28
c-17 15 -36 28 -42 28 -6 0 -24 -14 -41 -30z"/>
<path d="M2123 3740 c-25 -10 -47 -45 -38 -60 3 -6 35 -10 71 -10 60 0 64 1
64 23 0 46 -46 68 -97 47z"/>
<path d="M1757 3669 c-64 -53 -127 -211 -127 -317 0 -44 20 -114 49 -170 24
-47 59 -147 77 -217 9 -39 12 -44 12 -20 1 17 -3 50 -8 75 -5 28 -5 47 1 51
16 9 -18 117 -73 237 -44 94 -5 268 80 355 44 45 40 48 -11 6z"/>
<path d="M1410 2548 c0 -9 5 -20 10 -23 13 -8 13 5 0 25 -8 13 -10 13 -10 -2z"/>
<path d="M3450 2526 c0 -2 8 -10 18 -17 15 -13 16 -12 3 4 -13 16 -21 21 -21
13z"/>
<path d="M3749 2413 c-13 -17 -13 -17 6 -3 11 8 22 16 24 17 2 2 0 3 -6 3 -6
0 -17 -8 -24 -17z"/>
<path d="M1110 2206 c0 -2 8 -10 18 -17 15 -13 16 -12 3 4 -13 16 -21 21 -21
13z"/>
<path d="M1052 1413 c2 -27 8 -48 13 -48 6 0 11 21 13 48 3 38 0 47 -13 47
-13 0 -16 -9 -13 -47z"/>
<path d="M4024 1436 c-11 -29 1 -81 19 -84 14 -3 17 4 17 47 0 39 -4 51 -15
51 -9 0 -18 -6 -21 -14z"/>
<path d="M2897 994 c-11 -12 -8 -72 4 -80 16 -10 30 16 27 50 -3 29 -18 43
-31 30z"/>
<path d="M2251 974 c-14 -31 -14 -31 4 -38 14 -5 45 18 45 34 0 5 -8 14 -19
19 -15 8 -20 6 -30 -15z"/>
<path d="M4403 1710 c0 -25 2 -35 4 -22 2 12 2 32 0 45 -2 12 -4 2 -4 -23z"/>
<path d="M4403 1550 c0 -47 2 -66 4 -42 2 23 2 61 0 85 -2 23 -4 4 -4 -43z"/>
<path d="M653 1455 c0 -27 2 -38 4 -22 2 15 2 37 0 50 -2 12 -4 0 -4 -28z"/>
<path d="M4353 1325 c0 -38 2 -53 4 -32 2 20 2 52 0 70 -2 17 -4 1 -4 -38z"/>
<path d="M745 1069 c-4 -6 -5 -12 -2 -15 2 -3 7 2 10 11 7 17 1 20 -8 4z"/>
</g>
</svg>
